<?xml version="1.0" encoding="UTF-8"?><svg xmlns="http://www.w3.org/2000/svg" xmlns:xlink="http://www.w3.org/1999/xlink" height="315.8" preserveAspectRatio="xMidYMid meet" version="1.0" viewBox="0.0 0.0 384.7 315.8" width="384.7" zoomAndPan="magnify"><g id="change1_1"><path d="M82.502 5L355.502 5 355.502 182 107.982 182 107.982 187 360.502 187 360.502 0 77.502 0 77.502 38.199 82.502 38.199z" fill="inherit"/><path d="M123.5 33.246H154.383V38.617000000000004H123.5z" fill="inherit"/><path d="M286.307 18.811H317.19V24.182000000000002H286.307z" fill="inherit"/><path d="M286.307 149.056H342.19100000000003V154.42700000000002H286.307z" fill="inherit"/><path d="M286.307 161.813H342.19100000000003V167.184H286.307z" fill="inherit"/><path d="M139.184 41.791L137.356 42.604 146.57 63.339 163.782 63.339 163.782 61.339 147.871 61.339z" fill="inherit"/><path d="M273.886 42.974L294.26 42.974 302.944 28.387 301.225 27.363 293.124 40.974 273.886 40.974z" fill="inherit"/><path d="M143.455,230.668c0,11.176,8.15,20.444,18.83,22.197h7.34c10.681-1.753,18.83-11.022,18.83-22.197 c0-12.428-10.072-22.5-22.5-22.5C153.529,208.168,143.455,218.24,143.455,230.668z" fill="inherit"/><path d="M227.955,230.668c0,11.176,8.15,20.444,18.83,22.197h7.34c10.681-1.753,18.83-11.022,18.83-22.197 c0-12.428-10.072-22.5-22.5-22.5C238.029,208.168,227.955,218.24,227.955,230.668z" fill="inherit"/><path d="M362.848,261.02c-3.416-1.725-6.421-2.113-8.224-2.137c-0.117-0.004-0.232-0.018-0.352-0.018h-38.635 c-0.134,0-0.264,0.014-0.396,0.021c-1.807,0.025-4.791,0.42-8.183,2.133c-5.007,2.479-10.372,7.707-14.363,16.75 c-1.139-2.559-2.369-4.811-3.669-6.797c-3.285-4.984-7.127-8.182-10.679-9.953c-3.416-1.725-6.421-2.113-8.224-2.137 c-0.117-0.004-0.232-0.018-0.352-0.018h-38.635c-0.134,0-0.264,0.014-0.396,0.021c-1.807,0.025-4.791,0.42-8.183,2.133 c-5.007,2.479-10.372,7.707-14.363,16.75c-1.139-2.559-2.369-4.811-3.669-6.797c-3.285-4.984-7.127-8.182-10.679-9.953 c-3.416-1.725-6.421-2.113-8.224-2.137c-0.117-0.004-0.232-0.018-0.352-0.018h-38.635c-0.135,0-0.266,0.014-0.397,0.021 c-1.807,0.025-4.79,0.422-8.182,2.133c-5.381,2.664-11.179,8.5-15.237,18.84c-3.324,8.399-5.763,19.833-6.579,35.895h16.015 c0.933-16.783,3.813-26.959,6.652-32.77v32.77h54.092V283.03c0.593,1.215,1.191,2.609,1.781,4.236 c2.199,6.096,4.12,15.259,4.855,28.488h17.119c0.933-16.784,3.813-26.961,6.652-32.771v32.771h54.092v-32.727 c0.593,1.217,1.191,2.611,1.781,4.238c2.199,6.096,4.12,15.259,4.855,28.488h17.119c0.933-16.784,3.813-26.961,6.652-32.771v32.771 h54.092v-32.727c0.593,1.217,1.191,2.611,1.781,4.238c2.199,6.096,4.12,15.259,4.855,28.488h16.018 c-1.155-22.671-5.497-36.175-11.129-44.781C370.242,265.989,366.4,262.791,362.848,261.02z" fill="inherit"/><circle cx="334.955" cy="230.668" fill="inherit" r="22.5"/><path d="M160.176,90.379c-1.497-4.158-6.078-6.313-10.237-4.817c-21.955,7.904-60.683,10.802-66.373,11.192H44.989 c-0.109,0-0.215,0.012-0.323,0.016c-5.169,0.057-20.237,2.875-26.968,32.475c-0.462,2.03-0.886,4.179-1.263,6.468 c0,0.003,0,0.005-0.001,0.007c-1.346,8.171-2.138,18.039-2.138,30.076c0,5.851,0.187,12.22,0.596,19.154 c0.249,4.252,3.777,7.531,7.982,7.531c0.157,0,0.315-0.005,0.475-0.014c4.409-0.261,7.775-4.048,7.515-8.457 c-0.393-6.646-0.567-12.703-0.567-18.215c0-11.318,0.748-20.335,1.918-27.446c0.002-0.013,0.006-0.024,0.008-0.037 c0.354-2.149,0.749-4.117,1.171-5.936c1.136-4.894,2.485-8.637,3.867-11.471v22.978l-3.992,3.695 c-0.132,1.43-0.245,2.903-0.343,4.407l6.544-6.056l23.998,25.932l-35.229,32.602l-10.182-11.002c-1.986-1.07-3.578-2.78-4.5-4.863 l-9.316-10.066l7.912-7.322c-0.026-1.369-0.039-2.714-0.046-4.045L0,178.371l28.073,30.334l1.102-1.02l8.085-7.483v70.672 c0,6.83,5.537,12.363,12.363,12.363c6.828,0,12.365-5.533,12.365-12.363v-90.272h4.635v90.272c0,6.83,5.537,12.363,12.363,12.363 c6.828,0,12.365-5.533,12.365-12.363v-98v-18.94V112.2c14.005-1.204,44.296-4.489,64.006-11.584 C159.516,99.12,161.672,94.536,160.176,90.379z M73.806,157.437l-9.037,11.415l-6.404-6.92l-3.559-4.495l5.471-40.321 c1.297,0.486,2.662,0.74,4.027,0.739h0.002h0.006c1.363,0,2.725-0.254,4.021-0.74L73.806,157.437z M60.505,104.937h3.801h3.799 l1.9,7.5l-0.289,0.456c-1.566,1.305-3.484,1.96-5.412,1.962c-1.929-0.002-3.844-0.655-5.409-1.959l-0.291-0.459L60.505,104.937z" fill="inherit"/><circle cx="64.306" cy="68.555" fill="inherit" r="22.5"/><path d="M169.292,82.875v16.4h9.134c0.46,2.57,1.123,5.068,1.988,7.472l-7.899,4.56l8.2,14.203l7.913-4.568 c1.667,1.969,3.494,3.797,5.464,5.464l-4.568,7.913l14.203,8.2l4.56-7.899c2.404,0.865,4.902,1.528,7.472,1.988v9.134h16.4v-9.134 c2.57-0.46,5.068-1.123,7.472-1.988l4.56,7.899l14.203-8.2l-4.568-7.913c1.97-1.667,3.797-3.494,5.464-5.464l7.913,4.568 l8.2-14.203l-7.898-4.56c0.865-2.404,1.528-4.902,1.988-7.472h9.134v-16.4h-9.134c-0.46-2.57-1.123-5.068-1.988-7.472l7.898-4.56 l-8.2-14.203l-7.913,4.568c-1.667-1.97-3.494-3.797-5.464-5.464l4.568-7.913l-14.203-8.2l-4.56,7.898 c-2.404-0.865-4.902-1.528-7.472-1.988v-9.134h-16.4v9.134c-2.57,0.46-5.068,1.123-7.472,1.988l-4.56-7.898l-14.203,8.2 l4.568,7.913c-1.97,1.667-3.797,3.494-5.464,5.464l-7.913-4.568l-8.2,14.203l7.899,4.56c-0.865,2.404-1.528,4.902-1.988,7.472 H169.292z M197.992,91.075c0-14.341,11.626-25.967,25.967-25.967s25.967,11.626,25.967,25.967 c0,14.341-11.626,25.967-25.967,25.967S197.992,105.416,197.992,91.075z" fill="inherit"/><circle cx="223.959" cy="91.075" fill="inherit" r="13.911"/></g></svg>