<?xml version="1.0" encoding="UTF-8"?><svg xmlns="http://www.w3.org/2000/svg" xmlns:xlink="http://www.w3.org/1999/xlink" data-name="Layer 3" height="1008.4" preserveAspectRatio="xMidYMid meet" version="1.0" viewBox="645.9 500.4 708.3 1008.4" width="708.3" zoomAndPan="magnify"><g id="change1_1"><path d="M1163.669,659.636H836.332a15,15,0,0,1-15-15V515.369a15,15,0,0,1,15-15h327.337a15,15,0,0,1,15,15V644.636A15,15,0,0,1,1163.669,659.636Zm-312.337-30h297.337V530.369H851.332Z" fill="inherit"/></g><g id="change1_2"><path d="M1279.441,1508.8H720.559a74.775,74.775,0,0,1-74.69-74.69V622.2a74.775,74.775,0,0,1,74.69-74.69H836.332a15,15,0,0,1,15,15v67.13h297.336v-67.13a15,15,0,0,1,15-15h115.773a74.775,74.775,0,0,1,74.689,74.69v811.913A74.775,74.775,0,0,1,1279.441,1508.8ZM720.559,577.506a44.741,44.741,0,0,0-44.69,44.69v811.913a44.741,44.741,0,0,0,44.69,44.69h558.882a44.741,44.741,0,0,0,44.689-44.69V622.2a44.741,44.741,0,0,0-44.689-44.69H1178.668v67.13a15,15,0,0,1-15,15H836.332a15,15,0,0,1-15-15v-67.13Z" fill="inherit"/></g><g id="change1_3"><path d="M1246.465,832.826H916.5a15,15,0,1,1,0-30h329.966a15,15,0,0,1,0,30Z" fill="inherit"/></g><g id="change1_4"><path d="M787.232,850.67a14.949,14.949,0,0,1-10.606-4.394l-33.7-33.7a15,15,0,0,1,21.213-21.213l23.09,23.09L851.72,749.97a15,15,0,1,1,21.213,21.213l-75.095,75.094A14.954,14.954,0,0,1,787.232,850.67Z" fill="inherit"/></g><g id="change1_5"><path d="M1246.465,992.643H916.5a15,15,0,1,1,0-30h329.966a15,15,0,0,1,0,30Z" fill="inherit"/></g><g id="change1_6"><path d="M787.232,1010.487a14.953,14.953,0,0,1-10.606-4.394l-33.7-33.7a15,15,0,0,1,21.213-21.213l23.09,23.09,64.488-64.488A15,15,0,0,1,872.933,931l-75.095,75.095A14.953,14.953,0,0,1,787.232,1010.487Z" fill="inherit"/></g><g id="change1_7"><path d="M1246.465,1152.459H916.5a15,15,0,1,1,0-30h329.966a15,15,0,0,1,0,30Z" fill="inherit"/></g><g id="change1_8"><path d="M787.232,1170.3a14.953,14.953,0,0,1-10.606-4.394l-33.7-33.7A15,15,0,0,1,764.142,1111l23.09,23.09L851.72,1069.6a15,15,0,0,1,21.213,21.213l-75.095,75.095A14.953,14.953,0,0,1,787.232,1170.3Z" fill="inherit"/></g><g id="change1_9"><path d="M1246.465,1312.276H916.5a15,15,0,0,1,0-30h329.966a15,15,0,0,1,0,30Z" fill="inherit"/></g><g id="change1_10"><path d="M787.232,1330.121a14.953,14.953,0,0,1-10.606-4.394l-33.7-33.7a15,15,0,1,1,21.213-21.213l23.09,23.09,64.488-64.488a15,15,0,1,1,21.213,21.213l-75.095,75.095A14.953,14.953,0,0,1,787.232,1330.121Z" fill="inherit"/></g></svg>