<?xml version="1.0" encoding="UTF-8" standalone="no"?><svg xmlns="http://www.w3.org/2000/svg" xmlns:xlink="http://www.w3.org/1999/xlink" fill="#000000" height="122.9" preserveAspectRatio="xMidYMid meet" version="1" viewBox="0.0 0.0 80.7 122.9" width="80.7" zoomAndPan="magnify"><defs><clipPath id="a"><path d="M 27 114 L 54 114 L 54 122.941406 L 27 122.941406 Z M 27 114"/></clipPath><clipPath id="b"><path d="M 54 58 L 80.679688 58 L 80.679688 115 L 54 115 Z M 54 58"/></clipPath></defs><g><g id="change1_2"><path d="M 40.335938 49.238281 C 52.179688 49.238281 61.777344 32.492188 61.777344 20.652344 C 61.777344 8.808594 52.179688 0.00390625 40.335938 0.00390625 C 28.496094 0.00390625 18.894531 8.808594 18.894531 20.652344 C 18.894531 32.492188 28.496094 49.238281 40.335938 49.238281" fill="#ff4310"/></g><g id="change2_1"><path d="M 50.855469 89.316406 L 44.980469 92.71875 C 43.789062 93.390625 41.714844 93.957031 40.355469 93.941406 L 40.324219 93.941406 C 38.949219 93.957031 36.875 93.390625 35.699219 92.71875 L 29.824219 89.316406 C 28.050781 88.292969 27.929688 85.804688 29.578125 84.570312 C 32.570312 82.3125 36.292969 80.96875 40.339844 80.96875 C 44.367188 80.96875 48.09375 82.3125 51.097656 84.570312 C 52.734375 85.804688 52.625 88.292969 50.855469 89.316406 Z M 57.875 95.878906 C 58.730469 95.695312 59.617188 95.605469 60.515625 95.605469 L 64.148438 95.605469 C 62.53125 83.914062 52.472656 74.863281 40.339844 74.863281 C 28.191406 74.863281 18.148438 83.914062 16.53125 95.605469 L 20.160156 95.605469 C 21.0625 95.605469 21.949219 95.695312 22.785156 95.878906 C 23.445312 94.414062 25.273438 93.742188 26.769531 94.597656 L 29.519531 96.183594 C 32.492188 97.910156 34.660156 100 36.675781 102.246094 C 37.578125 103.234375 38.875 103.863281 40.339844 103.863281 C 41.789062 103.863281 43.101562 103.234375 44.003906 102.246094 C 46.015625 100 48.183594 97.910156 50.777344 96.398438 L 53.890625 94.613281 C 55.386719 93.742188 57.203125 94.429688 57.875 95.878906" fill="#000000"/></g><g clip-path="url(#a)" id="change2_2"><path d="M 49.128906 114.53125 C 45.773438 116.421875 41.757812 117.261719 37.53125 116.621094 C 35.394531 116.300781 33.363281 115.570312 31.53125 114.53125 C 30.554688 116.394531 29.121094 117.980469 27.394531 119.15625 C 31.136719 121.550781 35.578125 122.941406 40.339844 122.941406 C 45.101562 122.941406 49.542969 121.550781 53.28125 119.15625 C 51.542969 117.980469 50.121094 116.394531 49.128906 114.53125" fill="#000000"/></g><g id="change1_3"><path d="M 19.828125 102.472656 L 9.644531 102.472656 C 9.523438 101.296875 9.433594 100.109375 9.433594 98.902344 C 9.433594 96.382812 9.738281 93.941406 10.316406 91.605469 C 13.597656 78.066406 25.808594 67.996094 40.339844 67.996094 C 44.199219 67.996094 47.894531 68.695312 51.296875 70.007812 L 63.90625 53.601562 C 61.785156 52.714844 59.507812 52.136719 57.160156 51.894531 C 56.867188 51.863281 56.5625 51.847656 56.273438 51.816406 C 51.785156 55.691406 46.398438 58.195312 40.339844 58.195312 C 34.265625 58.195312 28.890625 55.691406 24.390625 51.816406 C 24.097656 51.847656 23.808594 51.863281 23.519531 51.894531 C 13.355469 52.945312 4.867188 60.285156 2.503906 70.207031 C 0.855469 77.105469 0 84.25 0 91.605469 L 0 106.882812 C 0 111.097656 3.417969 114.515625 7.632812 114.515625 L 20.160156 114.515625 C 23.597656 114.515625 26.34375 111.628906 26.160156 108.167969 C 25.992188 104.914062 23.078125 102.472656 19.828125 102.472656" fill="#ff4310"/></g><g clip-path="url(#b)" id="change1_1"><path d="M 78.175781 70.207031 C 77.089844 65.707031 74.757812 61.722656 71.566406 58.636719 L 59.339844 74.558594 C 64.730469 78.769531 68.695312 84.738281 70.359375 91.605469 C 70.941406 93.941406 71.246094 96.382812 71.246094 98.902344 C 71.246094 100.109375 71.167969 101.296875 71.03125 102.472656 L 60.515625 102.472656 C 57.082031 102.472656 54.335938 105.328125 54.519531 108.808594 C 54.6875 112.074219 57.601562 114.515625 60.867188 114.515625 L 73.046875 114.515625 C 77.257812 114.515625 80.679688 111.097656 80.679688 106.882812 L 80.679688 91.605469 C 80.679688 84.25 79.808594 77.105469 78.175781 70.207031" fill="#ff4310"/></g></g></svg>