<?xml version="1.0" encoding="UTF-8"?><svg xmlns="http://www.w3.org/2000/svg" xmlns:xlink="http://www.w3.org/1999/xlink" clip-rule="evenodd" fill-rule="evenodd" height="17.0" preserveAspectRatio="xMidYMid meet" stroke-linejoin="round" stroke-miterlimit="2" version="1.0" viewBox="2.0 8.2 28.0 17.0" width="28.0" zoomAndPan="magnify"><g><g><path d="M0 0H32V32H0z" fill="none" transform="translate(0 .197)"/><g id="change1_1"><path d="M89,329.197L89,319.197C89,318.645 88.552,318.197 88,318.197C84.131,318.197 76,318.197 76,318.197C75.448,318.197 75,317.749 75,317.197C75,316.645 75.448,316.197 76,316.197C76,316.197 84.131,316.197 88,316.197C89.657,316.197 91,317.54 91,319.197L93.042,319.197C94.551,319.197 95.978,319.878 96.928,321.05C97.821,322.153 98.972,323.574 99.496,324.22C99.822,324.623 100,325.126 100,325.644C100,326.22 100,327.258 100,328.197C100,329.854 98.657,331.197 97,331.197L94.829,331.197C94.417,332.362 93.305,333.197 92,333.197C90.695,333.197 89.583,332.362 89.171,331.197L81.5,331.197C81.481,331.197 81.461,331.197 81.442,331.196C81.03,332.361 79.918,333.197 78.613,333.197C77.307,333.197 76.196,332.362 75.783,331.197L73,331.197C72.448,331.197 72,330.749 72,330.197C72,329.645 72.448,329.197 73,329.197L75.783,329.197C76.196,328.032 77.307,327.197 78.613,327.197C79.918,327.197 81.03,328.033 81.442,329.199C81.461,329.198 81.481,329.197 81.5,329.197L89,329.197ZM78.613,329.197C79.164,329.197 79.613,329.645 79.613,330.197C79.613,330.749 79.164,331.197 78.613,331.197C78.061,331.197 77.613,330.749 77.613,330.197C77.613,329.645 78.061,329.197 78.613,329.197ZM91,330.197C91,330.749 91.448,331.197 92,331.197C92.552,331.197 93,330.749 93,330.197C93,329.645 92.552,329.197 92,329.197C91.448,329.197 91,329.645 91,330.197ZM91,321.197L91,327.368C91.313,327.257 91.649,327.197 92,327.197C93.305,327.197 94.417,328.032 94.829,329.197L97,329.197C97.552,329.197 98,328.749 98,328.197L98,326.197L94,326.197C93.448,326.197 93,325.749 93,325.197C93,324.645 93.448,324.197 94,324.197L96.903,324.197L95.374,322.309C94.804,321.606 93.947,321.197 93.042,321.197L91,321.197ZM86,324.197L74,324.197C73.448,324.197 73,324.645 73,325.197C73,325.749 73.448,326.197 74,326.197L86,326.197C86.552,326.197 87,325.749 87,325.197C87,324.645 86.552,324.197 86,324.197ZM86,320.197L75,320.197C74.448,320.197 74,320.645 74,321.197C74,321.749 74.448,322.197 75,322.197L86,322.197C86.552,322.197 87,321.749 87,321.197C87,320.645 86.552,320.197 86,320.197Z" fill="inherit" transform="translate(-70 -308)"/></g></g></g></svg>