<?xml version="1.0" encoding="UTF-8"?><svg xmlns="http://www.w3.org/2000/svg" xmlns:xlink="http://www.w3.org/1999/xlink" height="95.3" preserveAspectRatio="xMidYMid meet" version="1.0" viewBox="-0.1 16.5 128.2 95.3" width="128.2" zoomAndPan="magnify"><g id="change1_1"><ellipse cx="99.9" cy="35.4" fill="inherit" rx="8.8" ry="8.7"/></g><g id="change1_2"><ellipse cx="64.5" cy="25.2" fill="inherit" rx="8.8" ry="8.7"/></g><g id="change1_3"><path d="M29.1,40c4.8,0,8.8-3.9,8.8-8.7s-3.9-8.7-8.8-8.7c-4.8,0-8.8,3.9-8.8,8.7C20.4,36.1,24.3,40,29.1,40z" fill="inherit"/></g><g id="change1_4"><path d="M13.6,58.6c0-7.6,6.5-13.8,14.6-13.8H30c8,0,14.6,6.2,14.6,13.8h4l0,0H49v-6.1c0-7.6,6.5-13.8,14.6-13.8h1.8 c8,0,14.6,6.2,14.6,13.8v10.2h0.4l0,0h4c0-7.6,6.5-13.8,14.6-13.8h1.8c8,0,14.6,6.2,14.6,13.8v10.2h4V62.7c0-9.8-8.3-17.8-18.6-17.8 H99c-6.1,0-11.6,2.9-15,7.3c-0.2-9.7-8.4-17.6-18.6-17.6h-1.8c-8.9,0-16.3,6-18.1,14c-3.3-4.7-9-7.9-15.4-7.9h-1.8 c-10.2,0-18.6,8-18.6,17.8v14.3h4C13.6,72.9,13.6,58.6,13.6,58.6z" fill="inherit"/></g><g id="change1_5"><path d="M65.6,73.1C60,72.5,55,76.5,54.4,81.9c-0.3,2.6,0.4,5.3,2.1,7.3c1.7,2.1,4.1,3.5,6.8,3.8c0.4,0,0.8,0.1,1.1,0.1 c5.2,0,9.5-3.8,10.1-8.9c0.3-2.6-0.4-5.3-2.1-7.4C70.7,74.7,68.3,73.4,65.6,73.1z" fill="inherit"/></g><g id="change1_6"><path d="M88.3,91.5l-2.6-1.9c0.4-1.3,0.7-2.7,0.9-4.1c0.2-2,0.2-3.7-0.1-5.5l3-1.3c1.2-0.5,2.2-1.4,2.6-2.5c0.4-1,0.4-2-0.1-3 l-1.8-4c-0.8-1.7-2.5-2.9-4.4-2.9c-0.6,0-1.2,0.1-1.7,0.4l-3.3,1.5c-2.1-2.3-4.7-4.1-7.6-5.3l0.4-3.5c0.2-1.3-0.2-2.6-0.9-3.5 c-0.7-0.8-1.6-1.3-2.7-1.5l-4.4-0.5c-2.6-0.3-5,1.6-5.2,4L60,61.6c-3,0.6-5.9,1.9-8.5,3.8l-2.8-2c-0.9-0.7-1.9-1-2.9-1 c-1.3,0-2.4,0.6-3.2,1.6L40,67.5c-0.8,1-1.1,2.3-0.9,3.6c0.2,1.2,0.8,2.2,1.7,2.9l2.8,2c-0.6,1.6-0.9,3.2-1.1,4.8 c-0.2,1.6-0.2,3.2,0,4.8l-2.8,1.2c-1.2,0.5-2.2,1.4-2.6,2.5c-0.4,1-0.4,2,0.1,3l1.8,4c0.8,1.7,2.5,2.9,4.4,2.9 c0.6,0,1.2-0.1,1.7-0.3l2.7-1.2c2.2,2.6,5,4.6,8.2,5.9l-0.3,2.7c-0.2,1.3,0.2,2.6,0.9,3.5c0.7,0.8,1.6,1.3,2.7,1.5l4.4,0.5 c0.2,0,0.4,0,0.5,0c2.4,0,4.4-1.8,4.7-4l0.3-2.8c3.3-0.7,6.5-2.1,9.2-4.2l2.3,1.7c0.9,0.7,1.9,1,2.9,1c1.3,0,2.4-0.6,3.2-1.6 l2.6-3.5c0.8-1,1.1-2.3,0.9-3.6C89.9,93.2,89.2,92.2,88.3,91.5z M87.6,96.8l-2.6,3.5c-0.8,1-2.2,1.1-3.3,0.2l-3.5-2.6l-0.6,0.5 c-2.8,2.3-6.1,3.8-9.6,4.4l-0.8,0.1l-0.4,4.3c-0.1,1.3-1.5,2.4-3,2.2l-4.4-0.5c-0.6-0.1-1-0.3-1.4-0.7c-0.4-0.5-0.6-1.2-0.5-2 L58,102l-0.7-0.3c-3.3-1.3-6.3-3.4-8.5-6.2L48.1,95L44,96.8c-1.2,0.5-2.9-0.2-3.4-1.5l-1.8-4c-0.2-0.5-0.2-1-0.1-1.5 c0.2-0.6,0.8-1.1,1.5-1.4l4.2-1.8l-0.1-0.8c-0.2-1.7-0.3-3.3-0.1-5s0.6-3.4,1.3-5.1l0.3-0.7l-4-2.8c-0.5-0.4-0.8-0.9-0.9-1.6 c-0.1-0.7,0.1-1.5,0.5-2.1L44,65c0.8-1,2.2-1.1,3.3-0.2l4,2.9l0.6-0.5c2.8-2.1,5.7-3.4,9-4l0.7-0.1l0.6-5.1c0.1-1.3,1.6-2.4,3-2.2 l4.4,0.5c0.6,0.1,1,0.3,1.4,0.7c0.4,0.5,0.6,1.2,0.5,2L71,64l0.7,0.3c3.2,1.2,5.9,3.1,8.1,5.6l0.5,0.6l4.7-2.1 c1.2-0.5,2.9,0.2,3.4,1.5l1.8,4c0.2,0.5,0.2,1,0.1,1.5c-0.2,0.6-0.8,1.1-1.5,1.4l-4.4,1.9l0.1,0.8c0.4,1.9,0.4,3.6,0.2,5.7 c-0.2,1.5-0.5,2.9-1,4.3l-0.2,0.7l3.8,2.7c0.5,0.4,0.8,0.9,0.9,1.6C88.2,95.4,88,96.2,87.6,96.8z" fill="inherit"/></g><g id="change1_7"><path d="M109.1,82.7c-0.4,0-0.7,0-1.1,0.1c-1.9,0.3-3.5,1.3-4.6,2.8s-1.5,3.3-1.2,5.1c0.5,3.4,3.4,5.8,6.9,5.8c0.4,0,0.7,0,1.1-0.1 c1.9-0.3,3.5-1.3,4.6-2.8s1.5-3.3,1.2-5.1C115.5,85.2,112.6,82.7,109.1,82.7z" fill="inherit"/></g><g id="change1_8"><path d="M127.7,92.3c-0.4-0.8-1-1.4-1.8-1.7l-1.8-0.7c0-0.9,0-1.7-0.2-2.5c-0.2-1.2-0.5-2.3-0.9-3.3l1.4-1.2 c0.8-0.6,1.2-1.4,1.3-2.3c0.1-0.8-0.2-1.5-0.7-2.2l-1.8-2.2c-1.1-1.4-3.4-1.7-4.8-0.6l-1.7,1.4c-1.7-1-3.5-1.7-5.5-1.9l-0.3-2 c-0.3-1.9-1.7-3.1-3.6-2.8l-2.9,0.5c-0.9,0.1-1.8,0.7-2.3,1.4c-0.5,0.7-0.7,1.6-0.6,2.4l0.3,2.1c-1.7,0.9-3.2,2.1-4.5,3.7l-1.9-0.7 c-0.4-0.2-0.9-0.3-1.4-0.3c-1.3,0-2.4,0.7-2.8,1.9l-1,2.7c-0.3,0.9-0.3,1.8,0.1,2.7c0.4,0.8,1,1.4,1.8,1.7l1.8,0.7 c-0.1,1,0,2.1,0.2,3.1s0.4,1.9,0.8,2.9L93.7,96c-0.8,0.6-1.2,1.4-1.3,2.3c-0.1,0.8,0.2,1.5,0.7,2.2l1.8,2.2c1.1,1.4,3.4,1.7,4.8,0.6 l1.3-1.1c1.8,1.1,3.8,1.9,5.9,2.2l0.2,1.5c0.3,1.7,1.5,2.8,3.1,2.8c0.2,0,0.3,0,0.5,0l2.9-0.5c0.9-0.1,1.8-0.7,2.3-1.4 c0.5-0.7,0.7-1.6,0.6-2.4l-0.3-1.6c1.9-1,3.5-2.4,4.8-4l1.5,0.6c0.4,0.2,0.9,0.3,1.4,0.3l0,0c1.3,0,2.4-0.7,2.8-1.9l1-2.7 C128.1,94.1,128.1,93.1,127.7,92.3z M125.9,94.2l-1,2.7c-0.2,0.5-0.6,0.6-1,0.6c-0.2,0-0.4,0-0.7-0.1l-2.9-1.1l-0.4,0.6 c-1.3,1.9-3.1,3.4-5.2,4.4l-0.7,0.3l0.5,3.1c0,0.3,0,0.6-0.2,0.9s-0.6,0.6-1,0.6l-2.9,0.5c-0.8,0.1-1.2-0.5-1.3-1.1l-0.5-3l-0.8-0.1 c-2.3-0.2-4.5-1-6.3-2.4l-0.6-0.4l-2.5,2c-0.3,0.2-0.6,0.3-0.8,0.3c-0.5,0-0.9-0.2-1.2-0.6l-1.8-2.2c-0.2-0.2-0.3-0.4-0.2-0.7 c0-0.3,0.3-0.7,0.6-0.9l2.5-2l-0.3-0.7c-0.4-1-0.7-2-0.9-3.1c-0.2-1.1-0.2-2.2-0.1-3.3l0.1-0.8L93,86.4c-0.3-0.1-0.5-0.4-0.7-0.7 c-0.2-0.4-0.2-0.8,0-1.1l1-2.7c0.2-0.5,0.6-0.6,1-0.6c0.2,0,0.4,0,0.7,0.1l3.3,1.3l0.5-0.6c1.3-1.8,2.9-3.1,4.9-4l0.7-0.3l-0.6-3.6 c0-0.3,0-0.6,0.2-0.9s0.6-0.6,1-0.6l2.9-0.5c0.8-0.1,1.2,0.5,1.3,1.1l0.6,3.5l0.8,0.1c2.2,0.2,4.2,0.9,5.9,2.1l0.6,0.4l2.8-2.3 c0.3-0.2,0.6-0.3,0.8-0.3c0.5,0,0.9,0.2,1.2,0.6l1.8,2.2c0.2,0.2,0.3,0.4,0.2,0.7c0,0.3-0.2,0.7-0.6,0.9l-2.7,2.1L121,84 c0.5,1.1,0.9,2.2,1.1,3.5c0.1,0.9,0.2,1.9,0.1,2.9v0.7l3.1,1.2c0.3,0.1,0.5,0.4,0.7,0.7C126,93.5,126,93.9,125.9,94.2z" fill="inherit"/></g><g id="change1_9"><path d="M19.4,81.8c-3.9-0.4-7.3,2.4-7.7,6.1c-0.2,1.8,0.3,3.6,1.5,5.1s2.8,2.4,4.7,2.6c0.3,0,0.5,0,0.8,0c3.6,0,6.6-2.7,6.9-6.2 c0.2-1.8-0.3-3.6-1.5-5.1C23,82.9,21.3,82,19.4,81.8z" fill="inherit"/></g><g id="change1_10"><path d="M37.1,84.2c0.3-0.7,0.3-1.5-0.1-2.3l-1.2-2.6c-0.7-1.7-2.8-2.5-4.4-1.8l-2,0.9c-1.3-1.4-2.9-2.5-4.7-3.3L25,73 c0.1-1-0.1-1.9-0.7-2.5c-0.5-0.6-1.2-1-2-1.1l-2.9-0.3c-1.9-0.2-3.6,1.1-3.8,2.9l-0.2,2.2c-1.9,0.4-3.7,1.2-5.3,2.4l-1.6-1.2 C7,74.3,5,74.5,4,75.9l-1.7,2.3c-0.5,0.7-0.8,1.7-0.6,2.6c0.1,0.9,0.6,1.6,1.3,2.1L4.4,84c-0.3,1-0.5,2-0.7,3c-0.1,1-0.1,2,0,3 l-1.6,0.7c-0.9,0.4-1.6,1.1-1.9,1.9c-0.3,0.7-0.3,1.5,0.1,2.3l1.2,2.6c0.6,1.2,1.8,2.1,3.2,2.1c0.4,0,0.9-0.1,1.3-0.3l1.6-0.7 c1.4,1.6,3.2,2.8,5.1,3.7l-0.2,1.5c-0.1,1,0.1,1.9,0.7,2.5c0.5,0.6,1.2,1,2,1.1l2.9,0.3c0.1,0,0.3,0,0.4,0c1.7,0,3.2-1.3,3.4-2.9 l0.2-1.6c2.1-0.5,4-1.4,5.7-2.6l1.3,0.9c0.7,0.5,1.4,0.7,2.1,0.7c1,0,1.8-0.4,2.4-1.2l1.7-2.3c0.5-0.7,0.8-1.7,0.6-2.6 c-0.1-0.9-0.6-1.6-1.3-2.1L33,92.8c0.2-0.8,0.4-1.7,0.5-2.5c0.1-1.2,0.1-2.3,0-3.5l1.7-0.7C36.2,85.7,36.8,85.1,37.1,84.2z M34.5,84.3l-3.1,1.4l0.1,0.8c0.2,1.2,0.3,2.3,0.1,3.7c-0.1,0.9-0.3,1.9-0.6,2.8l-0.2,0.7l2.7,2c0.3,0.2,0.4,0.5,0.5,0.8 c0.1,0.4,0,0.8-0.3,1.1L32,99.9c-0.2,0.3-0.5,0.4-0.8,0.4s-0.6-0.1-0.9-0.3l-2.7-2L27,98.5c-1.8,1.5-3.9,2.4-6.2,2.8l-0.8,0.1 l-0.3,3.1c-0.1,0.7-0.8,1.2-1.6,1.1l-2.9-0.3c-0.3,0-0.5-0.1-0.7-0.3c-0.2-0.3-0.3-0.6-0.2-1.1l0.3-3l-0.7-0.3c-2.1-0.8-4-2.2-5.5-4 L8,96.1l-2.9,1.3c-0.6,0.3-1.5-0.1-1.8-0.8L2.1,94c-0.1-0.3-0.1-0.5,0-0.7c0.1-0.3,0.4-0.6,0.8-0.8l3-1.3l-0.1-0.8 c-0.1-1.1-0.2-2.1,0-3.2c0-1.1,0.3-2.2,0.7-3.2l0.3-0.7l-2.8-2c-0.3-0.2-0.4-0.5-0.5-0.8c-0.1-0.4,0-0.8,0.3-1.1L5.5,77 c0.4-0.5,1.1-0.5,1.7-0.1L10,79l0.6-0.5c1.8-1.4,3.7-2.2,5.8-2.6l0.7-0.1l0.4-3.6c0.1-0.7,0.8-1.2,1.6-1.1l2.9,0.3 c0.3,0,0.5,0.1,0.7,0.3c0.2,0.3,0.3,0.6,0.2,1.1l-0.4,3.6l0.7,0.3c2,0.8,3.8,2,5.2,3.6l0.5,0.6l3.3-1.5c0.6-0.3,1.5,0.1,1.8,0.8 l1.2,2.6c0.1,0.3,0.1,0.5,0,0.7C35.2,83.8,34.9,84.1,34.5,84.3z" fill="inherit"/></g></svg>