<?xml version="1.0" encoding="UTF-8" standalone="no"?><svg xmlns="http://www.w3.org/2000/svg" xmlns:xlink="http://www.w3.org/1999/xlink" fill="#000000" height="500" preserveAspectRatio="xMidYMid meet" version="1" viewBox="0.0 0.0 459.1 500.0" width="459.1" zoomAndPan="magnify"><g id="change1_1"><path d="M133.9,53.4c0,3.6-2.9,6.5-6.5,6.5c-3.6,0-6.5-2.9-6.5-6.5s2.9-6.5,6.5-6.5C131,46.9,133.9,49.8,133.9,53.4z M127.4,204.2c-3.6,0-6.5,2.9-6.5,6.5c0,3.6,2.9,6.5,6.5,6.5c3.6,0,6.5-2.9,6.5-6.5C133.9,207.1,131,204.2,127.4,204.2z M127.4,361.4c-3.6,0-6.5,2.9-6.5,6.5s2.9,6.5,6.5,6.5c3.6,0,6.5-2.9,6.5-6.5S131,361.4,127.4,361.4z M331.8,138.6 c3.6,0,6.5-2.9,6.5-6.5s-2.9-6.5-6.5-6.5s-6.5,2.9-6.5,6.5S328.2,138.6,331.8,138.6z M331.8,283c-3.6,0-6.5,2.9-6.5,6.5 c0,3.6,2.9,6.5,6.5,6.5s6.5-2.9,6.5-6.5C338.2,285.8,335.4,283,331.8,283z M331.8,440.2c-3.6,0-6.5,2.9-6.5,6.5s2.9,6.5,6.5,6.5 s6.5-2.9,6.5-6.5S335.4,440.2,331.8,440.2z" fill="#ff350a"/></g><g id="change2_1"><path d="M166.8,173h125.7c17.7-0.1,33.2-11.4,38.8-28.1c0.2,0,0.4,0,0.6,0c7,0,12.7-5.7,12.7-12.7c0,0,0,0,0,0 c0-7-5.7-12.7-12.7-12.7c-0.2,0-0.4,0-0.6,0c-2-6.1-5.4-11.6-9.9-16.2c-7.6-7.7-18-12-28.8-11.9H166.8 c-16.3-0.1-30.7-10.5-35.9-25.8c5.3-1.5,9.3-6.4,9.3-12.2c0-7-5.7-12.7-12.7-12.7c-7,0-12.7,5.7-12.7,12.7c0,7,5.7,12.7,12.7,12.7 c0.2,0,0.4,0,0.6,0c5.5,16.7,21.1,28.1,38.8,28.2h125.7c10.1,0,19.7,4,26.8,11.1c4.1,4.1,7.2,9.1,9.1,14.6 c-5.3,1.5-9.2,6.4-9.2,12.2c0,5.8,3.9,10.7,9.2,12.2c-5.2,15.3-19.6,25.6-35.9,25.7H166.7c-10.8,0-21.2,4.3-28.8,11.9 c-4.5,4.5-7.8,9.9-9.8,15.9c-0.2,0-0.4,0-0.7,0c-7,0-12.7,5.7-12.7,12.7c0,7,5.7,12.7,12.7,12.7c0.2,0,0.3,0,0.5,0 c5.4,16.8,21.1,28.3,38.8,28.4h125.7c16.2,0,30.6,10.3,35.8,25.5c-5.3,1.5-9.2,6.4-9.2,12.2c0,5.8,3.9,10.7,9.2,12.2 c-5.2,15.3-19.6,25.7-35.9,25.7H166.7c-10.8,0-21.2,4.3-28.8,11.9c-4.5,4.5-7.8,9.9-9.8,15.9c-0.2,0-0.4,0-0.7,0 c-7,0-12.7,5.7-12.7,12.7c0,7,5.7,12.7,12.7,12.7c0.2,0,0.3,0,0.5,0c5.4,16.8,21.1,28.3,38.8,28.4h125.7c16.2,0,30.6,10.3,35.8,25.5 c-5.3,1.5-9.2,6.4-9.2,12.2c0,7,5.7,12.7,12.7,12.7c7,0,12.7-5.7,12.7-12.7c0-7-5.7-12.7-12.7-12.7c-0.2,0-0.5,0-0.7,0 c-2-6-5.4-11.5-9.9-16c-7.6-7.7-18-12-28.8-11.9H166.8c-16.4-0.1-30.8-10.5-36-25.9c5.4-1.5,9.3-6.4,9.3-12.2 c0-5.8-3.9-10.6-9.1-12.2c1.9-5.4,4.9-10.3,9-14.4c7.1-7.1,16.7-11.1,26.8-11.1h125.7c17.7-0.1,33.2-11.4,38.8-28.1 c0.2,0,0.4,0,0.6,0c7,0,12.7-5.7,12.7-12.7c0-7-5.7-12.7-12.7-12.7c-0.2,0-0.4,0-0.6,0c-5.5-16.6-21.1-28-38.7-28H166.8 c-16.4,0-30.8-10.5-36-25.9c5.4-1.5,9.3-6.4,9.3-12.2c0,0,0,0,0,0c0-5.8-3.9-10.6-9.1-12.2c1.9-5.4,4.9-10.3,9-14.4 C147,176.9,156.7,172.9,166.8,173z M127.4,63.2c-5.4,0-9.8-4.4-9.8-9.8c0-5.4,4.4-9.8,9.8-9.8v0c5.4,0,9.8,4.4,9.8,9.8 C137.2,58.8,132.8,63.2,127.4,63.2z M321.9,132.2c0-5.4,4.4-9.8,9.8-9.8c5.4,0,9.8,4.4,9.8,9.8c0,0,0,0,0,0c0,5.4-4.4,9.8-9.8,9.8 C326.3,142,321.9,137.6,321.9,132.2z M331.8,436.8C331.8,436.8,331.8,436.8,331.8,436.8c5.4,0,9.8,4.4,9.8,9.8 c0,5.4-4.4,9.8-9.8,9.8c-5.4,0-9.8-4.4-9.8-9.8C322,441.2,326.4,436.8,331.8,436.8L331.8,436.8z M137.2,367.8c0,4.8-3.5,8.8-8.1,9.7 c-0.2,0-0.4,0-0.7,0.1c0,0-0.1,0-0.1,0.1c-0.3,0-0.6,0-0.9,0c-5.4,0-9.8-4.4-9.8-9.8c0-5.4,4.4-9.8,9.8-9.8 C132.8,358,137.2,362.4,137.2,367.8z M341.6,289.4C341.6,289.4,341.6,289.4,341.6,289.4c0,5.5-4.4,9.9-9.8,9.9 c-5.4,0-9.8-4.4-9.8-9.8c0-5.4,4.4-9.8,9.8-9.8C337.2,279.6,341.6,284,341.6,289.4z M137.2,210.6c0,4.8-3.5,8.8-8.1,9.6 c-0.2,0-0.4,0-0.7,0.1c0,0-0.1,0-0.1,0.1c-0.3,0-0.6,0-0.9,0c-5.4,0-9.8-4.4-9.8-9.8c0-5.4,4.4-9.8,9.8-9.8 C132.8,200.8,137.2,205.2,137.2,210.6z" fill="#ff4310"/></g><g id="change3_1"><path d="M405.7,78.8c29.5,0,53.4,23.9,53.4,53.4s-23.9,53.4-53.4,53.4c-29.5,0-53.4-23.9-53.4-53.4 S376.2,78.8,405.7,78.8z" fill="#ff4310"/></g><g id="change4_1"><path d="M405.7,236c29.5,0,53.4,23.9,53.4,53.4c0,29.5-23.9,53.4-53.4,53.4c-29.5,0-53.4-23.9-53.4-53.4 C352.3,259.9,376.2,236,405.7,236z" fill="#ff4310"/></g><g id="change3_2"><path d="M405.7,393.2c29.5,0,53.4,23.9,53.4,53.4c0,29.5-23.9,53.4-53.4,53.4c-29.5,0-53.4-23.9-53.4-53.4 C352.3,417.1,376.2,393.2,405.7,393.2z" fill="#ff4310"/></g><g id="change4_2"><path d="M53.4,0c29.5,0,53.4,23.9,53.4,53.4s-23.9,53.4-53.4,53.4S0,82.9,0,53.4S23.9,0,53.4,0z" fill="#ff4310"/></g><g id="change3_3"><path d="M53.4,157.2c29.5,0,53.4,23.9,53.4,53.4S82.9,264,53.4,264S0,240.1,0,210.6S23.9,157.2,53.4,157.2z" fill="#ff4310"/></g><g id="change4_3"><path d="M53.4,314.5c29.5,0,53.4,23.9,53.4,53.4c0,29.5-23.9,53.4-53.4,53.4S0,397.3,0,367.8 C0,338.4,23.9,314.5,53.4,314.5z" fill="#ff4310"/></g></svg>