<?xml version="1.0" encoding="UTF-8" standalone="no"?><svg xmlns="http://www.w3.org/2000/svg" xmlns:xlink="http://www.w3.org/1999/xlink" fill="#000000" height="184.6" preserveAspectRatio="xMidYMid meet" version="1" viewBox="0.0 0.0 190.3 184.6" width="190.3" zoomAndPan="magnify"><defs><clipPath id="a"><path d="M 4 2 L 190.25 2 L 190.25 184.648438 L 4 184.648438 Z M 4 2"/></clipPath><clipPath id="b"><path d="M 160 0 L 190.25 0 L 190.25 28 L 160 28 Z M 160 0"/></clipPath></defs><g><g clip-path="url(#a)" id="change1_1"><path d="M 164.957031 27.117188 L 190.246094 2.460938 L 189.320312 37.039062 L 179.65625 33.101562 L 141.496094 119.339844 L 126.710938 98.917969 L 104.183594 150.796875 L 68.308594 93.011719 L 39.03125 164.03125 L 24.023438 157.1875 L 9.316406 184.648438 L 4.523438 182.097656 L 22.074219 149.320312 L 36.492188 155.894531 L 67.652344 80.308594 L 103.667969 138.320312 L 125.871094 87.195312 L 140.703125 107.683594 L 174.617188 31.050781 L 164.957031 27.117188" fill="#d9d9d9"/></g><g id="change2_1"><path d="M 141.488281 119.335938 L 136.96875 116.878906 L 125.679688 101.285156 L 126.710938 98.917969 L 141.488281 119.335938" fill="#a82d0b"/></g><g id="change2_2"><path d="M 104.179688 150.796875 L 99.660156 148.335938 L 67.109375 95.917969 L 68.308594 93.007812 L 104.179688 150.796875" fill="#a82d0b"/></g><g id="change3_2"><path d="M 174.621094 31.046875 L 140.710938 107.6875 L 137.21875 102.867188 L 169.859375 29.105469 L 174.621094 31.046875" fill="#ff4310"/></g><g clip-path="url(#b)" id="change3_1"><path d="M 190.25 2.457031 L 164.960938 27.117188 L 160.429688 24.65625 L 185.71875 -0.00390625 L 190.25 2.457031" fill="#ff4310"/></g><g id="change3_3"><path d="M 125.871094 87.199219 L 103.671875 138.316406 L 100.378906 133.007812 L 121.339844 84.726562 L 125.871094 87.199219" fill="#ff4310"/></g><g id="change3_4"><path d="M 67.648438 80.308594 L 36.488281 155.898438 L 32.210938 153.996094 L 63.128906 77.847656 L 67.648438 80.308594" fill="#ff4310"/></g><g id="change3_5"><path d="M 22.082031 149.316406 L 4.519531 182.097656 L 0 179.636719 L 17.550781 146.855469 L 22.082031 149.316406" fill="#ff4310"/></g></g></svg>